<svg xmlns="http://www.w3.org/2000/svg" width="32" height="32">
    <path style="stroke:none;fill-rule:nonzero;fill:#000;fill-opacity:1" d="M10.879.805A17.162 17.162 0 0 1 13.414.8c4.48.492 8.219 3.52 9.656 7.82.414 1.227.59 2.512.54 3.965-.055 1.758-.387 3.086-1.16 4.672-.247.512-.825 1.449-1.25 2.027-.04.059 1.077 1.203 4.812 4.942l4.867 4.867-1.785 1.785-4.867-4.867c-3.739-3.735-4.883-4.852-4.942-4.813-1.723 1.258-3.379 1.98-5.258 2.297-.71.117-2.234.16-3.004.078a11.442 11.442 0 0 1-9.707-7.789c-.77-2.336-.77-4.86 0-7.2a11.513 11.513 0 0 1 4.606-5.987A11.771 11.771 0 0 1 10.879.805Zm2.562 2.562a8.893 8.893 0 0 0-6.199 1.414c-2.094 1.395-3.5 3.63-3.887 6.18-.082.547-.082 1.902 0 2.453.301 1.973 1.153 3.672 2.543 5.063 1.387 1.39 3.086 2.242 5.063 2.539.973.148 2.418.058 3.465-.207a8.97 8.97 0 0 0 6.383-6.383c.523-2.047.293-4.344-.625-6.16-1.34-2.668-3.875-4.508-6.743-4.899Zm0 0"/>
</svg>
